<svg width="48" height="48" viewBox="0 0 48 48" fill="none" xmlns="http://www.w3.org/2000/svg">
<g clip-path="url(#clip0)">
<path d="M7.02938 33.6954C9.64341 31.0815 12.7548 29.1464 16.1495 27.975C12.5137 25.4708 10.125 21.2799 10.125 16.541C10.125 8.89036 16.3493 2.66602 24 2.66602C31.6507 2.66602 37.875 8.89036 37.875 16.541C37.875 21.2799 35.4863 25.4708 31.8504 27.975C35.2451 29.1464 38.3565 31.0815 40.9705 33.6954C45.5035 38.2285 48 44.2554 48 50.666H44.25C44.25 39.5001 35.1659 30.416 24 30.416C12.8341 30.416 3.75 39.5001 3.75 50.666H0C0 44.2554 2.49647 38.2285 7.02938 33.6954ZM24 26.666C29.5829 26.666 34.125 22.124 34.125 16.541C34.125 10.958 29.5829 6.41602 24 6.41602C18.4171 6.41602 13.875 10.958 13.875 16.541C13.875 22.124 18.4171 26.666 24 26.666Z" fill="white"/>
</g>
<defs>
<clipPath id="clip0">
<rect width="48" height="48" fill="white" transform="matrix(-1 0 0 1 48 0)"/>
</clipPath>
</defs>
</svg>
